<svg width="18" height="18" viewBox="0 0 18 18" fill="none" xmlns="http://www.w3.org/2000/svg">
<g clip-path="url(#clip0_7_16)">
<path d="M8.99694 0.962898C7.03911 0.961249 5.14466 1.65681 3.65304 2.92496C2.16142 4.19311 1.17011 5.95097 0.856738 7.88357C0.543363 9.81616 0.928401 11.7972 1.94286 13.4717C2.95732 15.1462 4.5349 16.4048 6.39294 17.0219C6.80394 17.0931 6.93444 16.8516 6.93444 16.6341C6.93444 16.4369 6.93894 15.8909 6.93444 15.2016C4.64169 15.6981 4.16844 14.1156 4.16844 14.1156C4.01712 13.6175 3.69255 13.19 3.25344 12.9104C2.50569 12.3989 3.30969 12.4086 3.30969 12.4086C3.5708 12.4446 3.82025 12.5396 4.03901 12.6867C4.25777 12.8337 4.44005 13.0287 4.57194 13.2569C4.68355 13.4602 4.83433 13.6393 5.01558 13.7839C5.19682 13.9286 5.40493 14.0359 5.62788 14.0996C5.85084 14.1633 6.08421 14.1823 6.31452 14.1553C6.54483 14.1283 6.76751 14.0559 6.96969 13.9424C7.00752 13.5258 7.1929 13.1364 7.49244 12.8444C5.66319 12.6351 3.73944 11.9294 3.73944 8.7704C3.72782 7.95168 4.03185 7.15992 4.58844 6.5594C4.33626 5.84899 4.36497 5.06909 4.66869 4.37915C4.66869 4.37915 5.36169 4.1579 6.93369 5.22515C8.2845 4.85464 9.71014 4.85464 11.0609 5.22515C12.6374 4.15865 13.3244 4.37915 13.3244 4.37915C13.6282 5.06915 13.6574 5.84915 13.4062 6.5594C13.9629 7.16032 14.2665 7.9528 14.2537 8.7719C14.2537 11.9391 12.3269 12.6344 10.4917 12.8369C10.689 13.035 10.8415 13.2732 10.9388 13.5354C11.0361 13.7975 11.0759 14.0775 11.0557 14.3564V16.6371C11.0557 16.8576 11.1884 17.1014 11.6069 17.0211C13.4649 16.4035 15.0422 15.1443 16.0562 13.4694C17.0702 11.7944 17.4545 9.81314 17.1404 7.88054C16.8263 5.94795 15.8342 4.19036 14.342 2.92275C12.8498 1.65514 10.9549 0.960357 8.99694 0.962898Z" fill="#1F3E36"/>
</g>
<defs>
<clipPath id="clip0_7_16">
<rect width="18" height="18" fill="white"/>
</clipPath>
</defs>
</svg>
