<svg width="18" height="18" viewBox="0 0 18 18" fill="none" xmlns="http://www.w3.org/2000/svg">
<g clip-path="url(#clip0_7_18)">
<path fill-rule="evenodd" clip-rule="evenodd" d="M3.7458 3.0363C4.07902 2.69281 4.26374 2.23203 4.26001 1.75347C4.24267 1.28925 4.04864 0.849189 3.71762 0.52326C3.3866 0.19733 2.94358 0.0101543 2.47914 0C2.01334 0.00996821 1.56877 0.196681 1.23552 0.522288C0.902286 0.847895 0.705324 1.28803 0.68457 1.75347C0.691274 2.2312 0.881251 2.68808 1.21524 3.02972C1.54922 3.37136 2.00169 3.57162 2.47914 3.58915C2.95758 3.57836 3.41257 3.37978 3.7458 3.0363ZM2.14564 5.95414C1.39157 5.93706 0.876356 5.9254 0.876356 6.84952V17.1238C0.876356 18.0288 1.36766 18.01 2.07563 17.9832C2.2036 17.9783 2.33864 17.9731 2.47914 17.9731C2.6199 17.9731 2.75485 17.9783 2.88249 17.9832C3.58707 18.01 4.06824 18.0284 4.06824 17.1238V6.84952C4.06824 5.92559 3.56375 5.93706 2.81254 5.95413C2.70612 5.95655 2.59474 5.95908 2.47914 5.95908C2.36372 5.95908 2.25229 5.95656 2.14564 5.95414ZM7.39708 5.9728C7.0546 6.04129 6.83543 6.26048 6.83543 6.84953V17.1238C6.83543 18.0279 7.30623 18.0102 8.01546 17.9832C8.1444 17.9783 8.28121 17.9731 8.42451 17.9731C8.56755 17.9731 8.70446 17.9783 8.83374 17.9832C9.54637 18.0102 10.0273 18.0283 10.0273 17.1238V11.6442C10 11.3642 10.0326 11.0816 10.1228 10.8151C10.2129 10.5486 10.3587 10.3043 10.5504 10.0984C10.742 9.89247 10.9753 9.7296 11.2346 9.62059C11.494 9.51159 11.7735 9.4589 12.0548 9.46605C12.3373 9.44929 12.6202 9.49355 12.8841 9.59579C13.1481 9.69803 13.3868 9.85588 13.5844 10.0586C13.7819 10.2613 13.9335 10.5042 14.0289 10.7707C14.1242 11.0372 14.1611 11.3211 14.137 11.6031V17.0826C14.137 17.9869 14.6079 17.969 15.3171 17.9421C15.446 17.9373 15.5828 17.932 15.7261 17.932C15.8694 17.932 16.0062 17.9373 16.1352 17.9421C16.8444 17.969 17.3152 17.9869 17.3152 17.0826V10.0688C17.3413 9.49293 17.2459 8.91801 17.0352 8.3814C16.8246 7.84479 16.5034 7.3585 16.0926 6.95412C15.6817 6.54974 15.1904 6.23631 14.6506 6.03421C14.1107 5.8321 13.5343 5.74583 12.9589 5.78101C12.3729 5.72773 11.7831 5.8257 11.2459 6.06555C10.7086 6.3054 10.2418 6.67911 9.89031 7.15091C9.904 6.64404 9.73961 5.9728 9.32865 5.9728C9.21081 5.9728 9.02988 5.96717 8.82368 5.96074C8.31076 5.94477 7.64135 5.92394 7.39708 5.9728Z" fill="#1F3E36"/>
</g>
<defs>
<clipPath id="clip0_7_18">
<rect width="18" height="18" fill="white"/>
</clipPath>
</defs>
</svg>
