<svg width="125" height="39" viewBox="0 0 125 39" fill="none" xmlns="http://www.w3.org/2000/svg">
<path d="M18.3716 24.7411C18.3716 26.9002 18.1053 28.8469 17.5728 30.5813C17.0403 32.3156 16.2415 33.7934 15.1765 35.0145C14.1293 36.2356 12.8158 37.1736 11.236 37.8284C9.65622 38.4832 7.81908 38.8106 5.72455 38.8106C4.76604 38.8106 3.82528 38.7487 2.90228 38.6248C1.97927 38.5186 1.01188 38.3416 0.00012013 38.0939C0.0533706 37.386 0.115496 36.6781 0.186497 35.9702C0.257498 35.2623 0.319623 34.5544 0.372874 33.8465C0.426124 33.4571 0.577001 33.1474 0.825504 32.9173C1.09176 32.6696 1.46451 32.5457 1.94377 32.5457C2.24552 32.5457 2.63602 32.6076 3.11528 32.7315C3.61228 32.8554 4.23354 32.9173 4.97905 32.9173C5.99081 32.9173 6.88719 32.7758 7.6682 32.4926C8.44921 32.1917 9.09709 31.7228 9.61184 31.0856C10.1443 30.4485 10.5437 29.6256 10.81 28.6168C11.0762 27.5904 11.2094 26.3516 11.2094 24.9004V0H18.3716V24.7411Z" fill="#1F3E36"/>
<path d="M53.4737 5.86673H41.865V38.3859H34.7028V5.86673H23.0942V0H53.4737V5.86673Z" fill="#1F3E36"/>
<path d="M95.829 12.4988L91.2918 26.0563H90.3215C90.1666 26.0563 90.0618 25.9609 90.0072 25.7702L86.2899 14.7606C86.2444 14.6244 86.2034 14.4881 86.167 14.3519C86.1305 14.2156 86.0986 14.0794 86.0713 13.9431C86.0257 14.2156 85.9574 14.4881 85.8663 14.7606L82.0944 25.7702C82.0397 25.9609 81.9304 26.0563 81.7664 26.0563H80.8371L76.2999 12.4988H77.2839C77.4114 12.4988 77.5162 12.5351 77.5982 12.6078C77.6802 12.6714 77.7349 12.744 77.7622 12.8258L81.1924 23.5219C81.2471 23.7309 81.2972 23.9352 81.3428 24.1351C81.3883 24.3258 81.4248 24.5166 81.4521 24.7074C81.5067 24.5166 81.5614 24.3258 81.6161 24.1351C81.6707 23.9352 81.7345 23.7309 81.8074 23.5219L85.4426 12.7304C85.5064 12.5306 85.634 12.4307 85.8253 12.4307H86.3583C86.5587 12.4307 86.6908 12.5306 86.7546 12.7304L90.3625 23.5219C90.4263 23.7309 90.4855 23.9307 90.5401 24.1215C90.5948 24.3122 90.6449 24.503 90.6905 24.6937C90.7269 24.503 90.7633 24.3122 90.7998 24.1215C90.8453 23.9307 90.9 23.7309 90.9638 23.5219L94.4213 12.8258C94.4578 12.7259 94.517 12.6487 94.599 12.5942C94.681 12.5306 94.7767 12.4988 94.886 12.4988H95.829Z" fill="#1F3E36"/>
<path d="M108.136 17.9082C108.136 17.1815 108.032 16.532 107.822 15.9597C107.622 15.3783 107.335 14.8878 106.961 14.4881C106.588 14.0884 106.141 13.7841 105.622 13.5752C105.112 13.3572 104.547 13.2482 103.927 13.2482C103.226 13.2482 102.597 13.3572 102.041 13.5752C101.486 13.7932 101.003 14.1066 100.593 14.5154C100.192 14.9241 99.8684 15.4147 99.6224 15.9869C99.3764 16.5592 99.2124 17.1996 99.1304 17.9082H108.136ZM99.0621 18.7393V18.9982C99.0621 20.0156 99.1805 20.9103 99.4174 21.6825C99.6543 22.4546 99.9914 23.1041 100.429 23.6309C100.866 24.1487 101.394 24.5393 102.014 24.8027C102.634 25.0662 103.326 25.1979 104.091 25.1979C104.775 25.1979 105.367 25.1252 105.868 24.9799C106.369 24.8254 106.788 24.6574 107.125 24.4757C107.471 24.285 107.745 24.1169 107.945 23.9716C108.146 23.8172 108.291 23.7399 108.382 23.7399C108.501 23.7399 108.592 23.7854 108.656 23.8762L109.011 24.3122C108.792 24.5847 108.501 24.8391 108.136 25.0752C107.781 25.3114 107.38 25.5158 106.934 25.6884C106.496 25.8519 106.023 25.9836 105.513 26.0835C105.011 26.1835 104.506 26.2334 103.996 26.2334C103.066 26.2334 102.219 26.0745 101.454 25.7565C100.688 25.4295 100.032 24.9572 99.4857 24.3395C98.9391 23.7218 98.5154 22.9678 98.2148 22.0776C97.9232 21.1783 97.7775 20.1519 97.7775 18.9982C97.7775 18.0263 97.9141 17.1315 98.1874 16.314C98.4699 15.4873 98.8707 14.7788 99.3901 14.1884C99.9185 13.5888 100.561 13.121 101.317 12.7849C102.082 12.4488 102.948 12.2808 103.914 12.2808C104.679 12.2808 105.39 12.4125 106.045 12.6759C106.701 12.9393 107.271 13.3254 107.754 13.8341C108.237 14.3337 108.615 14.9514 108.888 15.6872C109.17 16.423 109.312 17.2678 109.312 18.2215C109.312 18.4214 109.284 18.5577 109.23 18.6303C109.175 18.703 109.084 18.7393 108.956 18.7393H99.0621Z" fill="#1F3E36"/>
<path d="M114.163 23.0995C114.691 23.8807 115.27 24.4303 115.898 24.7482C116.536 25.0571 117.251 25.2115 118.044 25.2115C118.855 25.2115 119.561 25.0662 120.162 24.7755C120.773 24.4848 121.278 24.0715 121.679 23.5356C122.089 22.9905 122.394 22.332 122.595 21.5598C122.795 20.7877 122.895 19.9202 122.895 18.9573C122.895 17.0861 122.522 15.6781 121.775 14.7334C121.028 13.7887 119.98 13.3163 118.632 13.3163C117.666 13.3163 116.823 13.548 116.103 14.0112C115.384 14.4745 114.737 15.1194 114.163 15.9461V23.0995ZM114.163 14.856C114.755 14.0566 115.447 13.4299 116.24 12.9757C117.033 12.5124 117.953 12.2808 119.001 12.2808C119.821 12.2808 120.554 12.4307 121.201 12.7304C121.848 13.0302 122.394 13.4617 122.841 14.0249C123.296 14.588 123.643 15.283 123.879 16.1096C124.116 16.9271 124.235 17.8582 124.235 18.9028C124.235 20.002 124.103 21.0057 123.838 21.9141C123.574 22.8134 123.187 23.5855 122.677 24.2305C122.176 24.8663 121.561 25.3614 120.832 25.7157C120.103 26.0608 119.269 26.2334 118.331 26.2334C117.365 26.2334 116.541 26.0518 115.857 25.6884C115.183 25.316 114.6 24.7664 114.108 24.0397L114.012 25.7157C113.985 25.9427 113.862 26.0563 113.643 26.0563H112.851V6.23099H114.163V14.856Z" fill="#1F3E36"/>
<circle cx="61.6614" cy="19.9159" r="5.0386" fill="#61877B"/>
</svg>
