<svg width="54" height="54" viewBox="0 0 54 54" fill="none" xmlns="http://www.w3.org/2000/svg">
<path d="M53.5091 51.1193L38.6324 36.0973C41.818 32.279 43.7354 27.3532 43.7354 21.9751C43.7354 9.83967 33.9852 0 21.8938 0C9.80232 0 0 9.83798 0 21.9734C0 34.1088 9.80232 43.9468 21.8938 43.9468C27.4139 43.9468 32.4412 41.8907 36.2793 38.5096L51.1292 53.5062C51.7851 54.1646 52.8515 54.1646 53.5074 53.5062C54.1634 52.8479 54.165 51.7777 53.5074 51.1176L53.5091 51.1193ZM21.8652 40.515C11.6928 40.515 3.36387 32.1574 3.36387 21.9464C3.36387 11.7354 11.6928 3.3778 21.8652 3.3778C32.0375 3.3778 40.3664 11.737 40.3664 21.9464C40.3664 32.1557 32.0392 40.515 21.8652 40.515ZM30.2748 20.2583H23.5471V13.5061C23.5471 12.5743 22.7936 11.8181 21.8652 11.8181C20.9367 11.8181 20.1832 12.5743 20.1832 13.5061V20.2583H13.4555C12.5271 20.2583 11.7735 21.0146 11.7735 21.9464C11.7735 22.8782 12.5271 23.6344 13.4555 23.6344H20.1832V30.3867C20.1832 31.3185 20.9367 32.0747 21.8652 32.0747C22.7936 32.0747 23.5471 31.3185 23.5471 30.3867V23.6344H30.2748C31.2033 23.6344 31.9568 22.8782 31.9568 21.9464C31.9568 21.0146 31.2033 20.2583 30.2748 20.2583Z" fill="#1F3E36"/>
</svg>
